<?xml version="1.0" encoding="UTF-8" standalone="no"?>
<svg
   xmlns:dc="http://purl.org/dc/elements/1.1/"
   xmlns:cc="http://creativecommons.org/ns#"
   xmlns:rdf="http://www.w3.org/1999/02/22-rdf-syntax-ns#"
   xmlns:svg="http://www.w3.org/2000/svg"
   xmlns="http://www.w3.org/2000/svg"
   xmlns:sodipodi="http://sodipodi.sourceforge.net/DTD/sodipodi-0.dtd"
   xmlns:inkscape="http://www.inkscape.org/namespaces/inkscape"
   version="1.0"
   width="1903.000000pt"
   height="592.000000pt"
   viewBox="0 0 1903.000000 592.000000"
   preserveAspectRatio="xMidYMid meet"
   id="svg19540"
   sodipodi:docname="edugestion-sub.svg"
   inkscape:version="0.92.5 (2060ec1f9f, 2020-04-08)">
  <defs
     id="defs19544">
    <clipPath
       id="clipPath20235"
       clipPathUnits="userSpaceOnUse">
      <rect
         ry="0"
         rx="21.693079"
         y="285.81644"
         x="42.525085"
         height="0.77257597"
         width="1.5785606"
         id="rect20237"
         style="fill:#616ead;fill-opacity:1;stroke:none;stroke-width:0.37279928;stroke-miterlimit:4;stroke-dasharray:none;stroke-opacity:1" />
    </clipPath>
    <clipPath
       id="clipPath20235-7"
       clipPathUnits="userSpaceOnUse">
      <rect
         ry="0"
         rx="21.693079"
         y="285.81644"
         x="42.525085"
         height="0.77257597"
         width="1.5785606"
         id="rect20237-2"
         style="fill:#616ead;fill-opacity:1;stroke:none;stroke-width:0.37279928;stroke-miterlimit:4;stroke-dasharray:none;stroke-opacity:1" />
    </clipPath>
    <clipPath
       id="clipPath20278"
       clipPathUnits="userSpaceOnUse">
      <g
         inkscape:label="Clip"
         id="use20280"
         style="fill:#000000;fill-opacity:0.97864081">
        <path
           id="path20364"
           d="m 42.034632,286.95534 c -0.242478,0.12147 -0.380358,0.40327 -0.380358,0.77737 0,0.3741 0.08558,0.59274 0.290025,0.74335 0.190177,0.13605 0.613331,0.17977 0.922375,0.0924 0.204442,-0.0582 0.213953,-0.0681 0.213953,-0.25265 v -0.18461 l -0.190183,0.0971 c -0.275759,0.14575 -0.580046,0.13118 -0.755968,-0.0389 -0.07607,-0.0729 -0.15214,-0.18948 -0.166403,-0.26721 l -0.02852,-0.13118 h 0.599071 0.603819 l -0.02852,-0.24778 c -0.03804,-0.31095 -0.185428,-0.55388 -0.375607,-0.6219 -0.218709,-0.0777 -0.513486,-0.0631 -0.70367,0.034 z"
           inkscape:connector-curvature="0"
           style="fill:#000000;fill-opacity:0.97864081;stroke-width:0.00480624" />
        <ellipse
           transform="rotate(-179.75843,42.864916,286.6769)"
           cx="43.325005"
           cy="285.82916"
           rx="0.4222703"
           ry="0.4075056"
           clip-path="url(#clipPath20235)"
           id="ellipse20366"
           style="fill:#ffffff;fill-opacity:0.97864081;stroke:none;stroke-width:0.20628035;stroke-miterlimit:4;stroke-dasharray:none;stroke-opacity:1" />
        <ellipse
           transform="rotate(-179.75843,53.804015,286.62473)"
           cx="43.325005"
           cy="285.82916"
           rx="0.4222703"
           ry="0.4075056"
           clip-path="url(#clipPath20235-9)"
           id="ellipse20368"
           style="fill:#ffffff;fill-opacity:1;stroke:none;stroke-width:0.20628035;stroke-miterlimit:4;stroke-dasharray:none;stroke-opacity:1" />
      </g>
    </clipPath>
    <clipPath
       id="clipPath20235-9"
       clipPathUnits="userSpaceOnUse">
      <rect
         ry="0"
         rx="21.693079"
         y="285.81644"
         x="42.525085"
         height="0.77257597"
         width="1.5785606"
         id="rect20237-4"
         style="fill:#616ead;fill-opacity:1;stroke:none;stroke-width:0.37279928;stroke-miterlimit:4;stroke-dasharray:none;stroke-opacity:1" />
    </clipPath>
  </defs>
  <sodipodi:namedview
     pagecolor="#ffffff"
     bordercolor="#666666"
     borderopacity="1"
     objecttolerance="10"
     gridtolerance="10"
     guidetolerance="10"
     inkscape:pageopacity="0"
     inkscape:pageshadow="2"
     inkscape:window-width="1920"
     inkscape:window-height="1001"
     id="namedview19542"
     showgrid="false"
     inkscape:zoom="0.34366789"
     inkscape:cx="1048.6441"
     inkscape:cy="343.12657"
     inkscape:window-x="-9"
     inkscape:window-y="-9"
     inkscape:window-maximized="1"
     inkscape:current-layer="layer1" />
  <metadata
     id="metadata19464">
Created by potrace 1.16, written by Peter Selinger 2001-2019
<rdf:RDF>
  <cc:Work
     rdf:about="">
    <dc:format>image/svg+xml</dc:format>
    <dc:type
       rdf:resource="http://purl.org/dc/dcmitype/StillImage" />
    <dc:title></dc:title>
  </cc:Work>
</rdf:RDF>
</metadata>
  <g
     transform="translate(0.000000,592.000000) scale(0.100000,-0.100000)"
     fill="#000000"
     stroke="none"
     id="g19538">
    <g
       transform="matrix(216.80836,0,0,-200.25973,-16.744486,60238.141)"
       id="layer1"
       inkscape:label="Capa 1"
       style="stroke-width:0.13603917">
      <path
         d="m 81.705883,290.95919 1.785261,2.85901 0.463456,-3.27992 z"
         style="fill:#fbb03b;fill-opacity:1;fill-rule:nonzero;stroke:none;stroke-width:0.00375329"
         id="path264-1"
         inkscape:connector-curvature="0" />
      <path
         d="m 80.088967,275.90882 -1.015782,0.19021 c -0.327736,0.0613 -0.650046,-0.13852 -0.716048,-0.44435 l -0.494032,-2.29424 c -0.06601,-0.30583 0.148581,-0.60607 0.4766,-0.6676 l 1.015782,-0.19021 c 0.327734,-0.0613 0.649757,0.13853 0.715479,0.44436 l 0.494602,2.2945 c 0.06572,0.30557 -0.148867,0.60607 -0.476601,0.66733"
         style="fill:#fc6b76;fill-opacity:1;fill-rule:nonzero;stroke:none;stroke-width:0.00375329"
         id="path266-3"
         inkscape:connector-curvature="0" />
      <path
         d="m 83.9546,290.53828 -2.248717,0.42091 -3.064773,-14.23004 2.248151,-0.42091 3.065339,14.23004"
         style="fill:#fcee21;fill-opacity:1;fill-rule:nonzero;stroke:none;stroke-width:0.00375329"
         id="path268-2"
         inkscape:connector-curvature="0" />
      <path
         d="m 81.256756,277.04323 -2.769899,0.51868 -0.733757,-3.4062 2.77018,-0.51868 0.733476,3.4062"
         style="fill:#fbb03b;fill-opacity:1;fill-rule:nonzero;stroke:none;stroke-width:0.00375329"
         id="path270-8"
         inkscape:connector-curvature="0" />
      <path
         id="path19466"
         d="m 65.545082,278.98087 c -0.418394,0.69477 -0.765476,1.28751 -0.774983,1.30694 -0.0095,0.0244 0.347077,0.0437 0.789247,0.0437 h 0.808269 l 0.489711,-0.53929 c 0.271008,-0.30123 0.52775,-0.58303 0.56579,-0.62676 0.08082,-0.0972 1.036479,-1.15146 1.131572,-1.24377 0.02852,-0.034 0.05705,-0.0972 0.05705,-0.13605 0,-0.0681 -0.137882,-0.0777 -1.150593,-0.0777 h -1.155346 z"
         inkscape:connector-curvature="0"
         style="fill:#616ead;fill-opacity:1;stroke-width:0.00065384" />
      <path
         id="path19468"
         d="m 4.2356953,279.46672 c 0,1.39439 -0.1759141,6.32093 -0.2805168,7.89996 -0.014286,0.27693 -0.02378,0.51014 -0.0095,0.52471 0.0095,0.01 1.1791141,0.0194 2.6007149,0.0194 h 2.576942 l 0.01902,-0.25752 0.01428,-0.25749 -2.3154474,0.0194 -2.3202078,0.0244 0.02378,-0.5053 c 0.033274,-0.64132 0.1188614,-3.1386 0.1188614,-3.42525 v -0.21378 h 2.1395381 2.1395297 v -0.24293 -0.23806 H 6.8459523 c -1.1505931,0.005 -2.1062493,-0.01 -2.1205169,-0.0243 -0.028571,-0.0291 0.080832,-3.82852 0.1093585,-3.86739 0.038065,-0.034 3.9700135,-0.0194 4.3123385,0.0194 l 0.318553,0.0389 v -0.27224 -0.27207 H 6.8507046 4.235722 Z"
         inkscape:connector-curvature="0"
         style="fill:#616ead;fill-opacity:1;stroke-width:0.00065384" />
      <path
         id="path19470"
         d="m 16.288374,279.62219 c 0,0.65105 -0.01428,1.20005 -0.03329,1.2195 -0.01425,0.0194 -0.199689,0.005 -0.404132,-0.0291 -0.542011,-0.0875 -1.611778,-0.0777 -2.130019,0.0244 -1.621289,0.32066 -2.686298,1.42354 -2.99534,3.11431 -0.09509,0.515 -0.07608,1.58874 0.04278,2.00657 0.266252,0.98142 0.993692,1.72964 1.911314,1.97256 0.684648,0.17977 1.350282,0.14575 1.987385,-0.10689 0.594311,-0.23806 1.031728,-0.65104 1.34077,-1.26321 l 0.118865,-0.22836 -0.02853,0.6802 c -0.01428,0.3741 -0.03804,0.72877 -0.0523,0.78707 -0.01902,0.10689 -0.0048,0.11175 0.266252,0.11175 H 16.5974 v -0.37896 c 0,-0.20406 0.0095,-0.7142 0.02378,-1.12718 0.01428,-0.41297 0.04754,-1.63731 0.07133,-2.72077 0.06181,-2.51185 0.133124,-4.55729 0.171161,-4.94597 l 0.02852,-0.30123 h -0.299534 -0.304289 z m -0.423151,1.68104 c 0.199691,0.0535 0.370855,0.10204 0.375607,0.11176 0.02378,0.0389 -0.07608,2.68191 -0.118862,3.14345 -0.06181,0.71906 -0.152146,1.09803 -0.389869,1.58875 -0.446925,0.94255 -1.236174,1.47213 -2.201338,1.47213 -0.328062,0 -0.922374,-0.16033 -1.193383,-0.32066 -0.480205,-0.28666 -0.865318,-0.86481 -1.050746,-1.57416 -0.123617,-0.47614 -0.114109,-1.36039 0.02378,-1.88997 0.399376,-1.52558 1.293225,-2.36124 2.790894,-2.60902 0.489716,-0.0826 1.278965,-0.0485 1.763923,0.0777 z"
         inkscape:connector-curvature="0"
         style="fill:#616ead;fill-opacity:1;stroke-width:0.00065384" />
      <path
         id="path19472"
         d="m 58.389546,279.40842 v 0.92312 h 1.236173 1.236173 v -0.92312 -0.92312 h -1.236173 -1.236173 z"
         inkscape:connector-curvature="0"
         style="fill:#616ead;fill-opacity:1;stroke-width:0.00065384" />
      <path
         id="path19474"
         d="m 29.577226,278.78168 c -2.367746,0.23321 -4.008052,1.79278 -4.350375,4.12487 -0.242482,1.63247 0.118862,3.32808 0.946149,4.40668 1.407332,1.83652 4.245773,2.26893 7.540649,1.14661 l 0.404133,-0.14089 0.01428,-2.46327 0.0095,-2.46328 h -2.210845 -2.210845 v 0.94742 0.94741 h 0.9509 0.9509 v 0.94255 0.94255 l -0.304289,0.034 c -0.351833,0.0389 -1.160098,-0.0389 -1.545212,-0.15061 -0.974677,-0.28665 -1.711624,-1.10775 -1.93984,-2.15718 -0.104599,-0.50044 -0.104599,-1.55959 0.0048,-2.0163 0.437416,-1.8268 2.191829,-2.69161 4.10314,-2.02114 0.437418,0.15548 0.836795,0.38382 1.440617,0.82596 0.294782,0.21377 0.446924,0.29637 0.561034,0.29637 h 0.152143 v -1.18549 -1.18061 l -0.318553,-0.15062 c -1.28847,-0.60245 -2.705315,-0.83566 -4.198228,-0.68505 z"
         inkscape:connector-curvature="0"
         style="fill:#616ead;fill-opacity:1;stroke-width:0.00065384" />
      <path
         id="path19476"
         d="m 52.669873,279.24323 c -0.01901,0.0194 -0.03329,0.50043 -0.03329,1.07374 v 1.03486 h -0.451676 -0.451675 v 0.85024 0.85024 h 0.446921 0.446923 l 0.02377,2.0503 c 0.02377,2.2592 0.03329,2.35152 0.328063,2.91511 0.232968,0.44698 0.580049,0.69477 1.207645,0.87453 0.328061,0.0924 0.489713,0.10203 1.255191,0.10203 0.665628,-0.005 0.979426,-0.0291 1.283716,-0.0972 l 0.404133,-0.0875 0.01427,-0.84052 0.0095,-0.83567 h -0.128372 c -0.07608,0 -0.271007,0.0437 -0.432662,0.0971 -0.332815,0.10691 -0.827285,0.12633 -1.041238,0.0437 -0.19018,-0.0729 -0.347077,-0.23321 -0.446923,-0.45669 -0.08082,-0.17977 -0.09033,-0.34982 -0.09033,-1.98229 v -1.78307 h 1.069765 1.069765 v -0.85024 -0.85023 h -1.069765 -1.069765 l -0.0095,-1.05917 -0.01426,-1.0543 -1.145837,-0.0146 c -0.627595,-0.005 -1.155345,0.005 -1.174366,0.0194 z"
         inkscape:connector-curvature="0"
         style="fill:#616ead;fill-opacity:1;stroke-width:0.00065384" />
      <path
         id="path19478"
         d="m 18.722683,281.70165 c -0.01902,0.46154 -0.06656,1.57415 -0.109354,2.46812 -0.08558,1.81223 -0.06656,2.17662 0.152146,2.67704 0.213953,0.481 0.66563,0.8551 1.250433,1.03487 1.045992,0.31579 2.386765,0.14576 3.109449,-0.39354 0.199691,-0.15062 0.594316,-0.65105 0.665634,-0.84053 0.01428,-0.0389 0.02852,0.22836 0.02852,0.59274 l 0.0048,0.67048 h 0.251988 0.256744 l 0.02852,-1.30208 c 0.02378,-1.12718 0.171161,-4.33866 0.247231,-5.39296 l 0.02378,-0.34982 h -0.285269 -0.285271 v 0.22835 c -0.0048,1.17577 -0.133125,3.74592 -0.218706,4.24149 -0.152145,0.89397 -0.665631,1.65676 -1.340772,1.97742 -1.231419,0.58788 -2.900252,0.2575 -3.294874,-0.64132 -0.161653,-0.37411 -0.194935,-0.79194 -0.13788,-1.93856 0.07132,-1.53043 0.185424,-3.47383 0.21395,-3.68761 l 0.02378,-0.17977 h -0.275758 -0.280516 z"
         inkscape:connector-curvature="0"
         style="fill:#616ead;fill-opacity:1;stroke-width:0.00065384" />
      <path
         id="path19480"
         d="m 38.610793,281.23036 c -1.526197,0.33039 -2.481856,1.25836 -2.885989,2.79365 -0.123616,0.481 -0.114106,1.83167 0.02378,2.33695 0.418398,1.5693 1.592759,2.45841 3.527844,2.67219 1.164856,0.13119 2.633998,-0.0729 3.599165,-0.49556 l 0.204442,-0.0875 v -0.97657 -0.9717 h -0.147387 c -0.08558,0 -0.261504,0.0729 -0.413643,0.17005 -0.380362,0.23807 -0.974677,0.48585 -1.407336,0.58302 -0.551525,0.12632 -1.497671,0.0826 -1.944596,-0.0875 -0.546768,-0.20405 -0.832037,-0.46156 -1.03648,-0.92797 -0.04754,-0.11661 -0.104599,-0.31581 -0.118865,-0.43727 l -0.03329,-0.22349 h 2.629246 2.629241 l -0.02378,-0.81623 c -0.01902,-0.5053 -0.05706,-0.94742 -0.109352,-1.17577 -0.2615,-1.16118 -0.984184,-1.95798 -2.068209,-2.28836 -0.299534,-0.0875 -0.499223,-0.10689 -1.236174,-0.12146 -0.622841,-0.01 -0.969922,0.005 -1.188627,0.0535 z m 1.355035,1.50614 c 0.156899,0.0437 0.361342,0.13605 0.451678,0.21378 0.204444,0.17005 0.408887,0.57817 0.451679,0.91341 l 0.03329,0.25749 h -1.459631 -1.464391 l 0.03329,-0.22348 c 0.03804,-0.30124 0.175919,-0.59275 0.366099,-0.78709 0.190179,-0.1992 0.342325,-0.28179 0.670384,-0.36924 0.332816,-0.0924 0.575297,-0.0924 0.917623,-0.005 z"
         inkscape:connector-curvature="0"
         style="fill:#616ead;fill-opacity:1;stroke-width:0.00065384" />
      <path
         id="path19482"
         d="m 47.145134,281.21094 c -0.48496,0.0631 -1.141083,0.2672 -1.516686,0.47126 -0.446927,0.24293 -0.874834,0.68506 -1.079277,1.10775 -0.156897,0.32552 -0.161649,0.34981 -0.161649,0.94255 0,0.58788 0.0048,0.61704 0.156898,0.93284 0.370851,0.77736 1.045991,1.1709 2.448569,1.4284 1.378809,0.25265 1.649817,0.37411 1.649817,0.74335 0,0.1166 -0.03804,0.21864 -0.09985,0.29152 -0.185424,0.20405 -0.408888,0.26236 -1.055499,0.28665 -0.508735,0.0194 -0.679895,0.005 -1.055502,-0.0875 -0.646612,-0.15061 -1.288471,-0.42755 -1.702115,-0.73363 -0.104598,-0.0777 -0.242478,-0.1409 -0.304288,-0.1409 H 44.3162 v 1.01543 1.01542 l 0.299535,0.12147 c 1.01271,0.41298 2.543659,0.57816 3.718023,0.3984 1.231419,-0.18949 2.130022,-0.75307 2.510379,-1.56929 0.147393,-0.31096 0.152146,-0.34982 0.152146,-0.93285 0,-0.47613 -0.01901,-0.6559 -0.08558,-0.82594 -0.218706,-0.54416 -0.698912,-0.97658 -1.331262,-1.20006 -0.180672,-0.0681 -0.713174,-0.19433 -1.179117,-0.28665 -1.079275,-0.21378 -1.435864,-0.32552 -1.559481,-0.4907 -0.109354,-0.13605 -0.128368,-0.35469 -0.0523,-0.5053 0.194937,-0.36925 1.393072,-0.49557 2.282163,-0.23806 0.380361,0.11173 1.055502,0.41782 1.278965,0.57815 0.07607,0.0584 0.194932,0.10203 0.261497,0.10203 h 0.123618 v -0.96684 -0.9717 l -0.256744,-0.0972 c -0.950902,-0.36439 -2.296427,-0.51987 -3.332911,-0.38868 z"
         inkscape:connector-curvature="0"
         style="fill:#616ead;fill-opacity:1;stroke-width:0.00065384" />
      <path
         id="path19484"
         d="m 65.369167,281.20607 c -1.45488,0.25265 -2.458084,1.18548 -2.847952,2.6479 -0.09034,0.33524 -0.104599,0.515 -0.104599,1.26321 0,0.74335 0.01427,0.93284 0.09985,1.26322 0.294776,1.10289 0.946146,1.92397 1.873275,2.35152 0.889092,0.40812 2.277412,0.49071 3.31865,0.19434 1.469142,-0.41297 2.401023,-1.63733 2.510378,-3.30865 0.133128,-1.98228 -0.50398,-3.35724 -1.873278,-4.05201 -0.608575,-0.30608 -1.117307,-0.40812 -2.039684,-0.40325 -0.389868,0.005 -0.813021,0.0244 -0.936636,0.0437 z m 1.602269,1.78309 c 0.508734,0.27206 0.770231,0.82593 0.855812,1.81708 0.03804,0.45183 -0.04754,1.29237 -0.166412,1.60331 -0.133121,0.36439 -0.399378,0.69963 -0.65612,0.8308 -0.304288,0.15062 -0.855812,0.17976 -1.202891,0.0631 -0.665632,-0.22835 -0.993692,-0.94742 -0.993692,-2.17663 0,-0.67047 0.08082,-1.09315 0.280517,-1.50128 0.185425,-0.3741 0.394625,-0.58301 0.698913,-0.69962 0.275759,-0.10203 0.936639,-0.0681 1.183873,0.0631 z"
         inkscape:connector-curvature="0"
         style="fill:#616ead;fill-opacity:1;stroke-width:0.00065384" />
      <path
         id="path19486"
         d="m 75.914665,281.23523 c -0.427906,0.0971 -0.817772,0.28179 -1.302733,0.61702 -0.213953,0.15548 -0.404136,0.27695 -0.413644,0.27695 -0.01428,0 -0.02378,-0.17491 -0.02378,-0.38869 v -0.38868 H 73.00965 71.844801 v 3.76535 3.76535 h 1.164849 1.164858 v -2.6479 -2.64788 l 0.27576,-0.1409 c 0.446927,-0.22836 0.784494,-0.31094 1.193382,-0.28666 0.413643,0.0244 0.703666,0.15062 0.836797,0.3644 0.204442,0.3158 0.223457,0.55873 0.247234,3.01228 l 0.02378,2.34666 h 1.160099 1.160097 v -2.69161 c 0,-3.00743 -0.01425,-3.16776 -0.304285,-3.79452 -0.19018,-0.39353 -0.551527,-0.7725 -0.927131,-0.97169 -0.48496,-0.24778 -1.28847,-0.32553 -1.925574,-0.18948 z"
         inkscape:connector-curvature="0"
         style="fill:#616ead;fill-opacity:1;stroke-width:0.00065384" />
      <path
         id="path19488"
         d="m 58.437093,285.11718 v 3.76535 h 1.164852 1.164858 v -3.76535 -3.76535 h -1.164858 -1.164852 z"
         inkscape:connector-curvature="0"
         style="fill:#616ead;fill-opacity:1;stroke-width:0.00065384" />
      <g
         id="g20752"
         transform="matrix(0.00184362,0,0,-0.00203344,45.45897,299.09083)"
         style="fill:#000000;stroke:none;stroke-width:0.33719197;fill-opacity:0.86930692">
        <path
           id="path20696"
           d="m 10500,3105 v -645 h 65 c 51,0 65,3 65,15 0,19 -1,19 54,-11 55,-30 142,-41 202,-25 100,27 185,130 225,273 30,106 33,333 6,441 -44,178 -128,262 -263,259 -69,-1 -136,-29 -191,-81 l -33,-30 v 225 224 h -65 -65 z m 387,140 c 41,-18 57,-34 82,-90 26,-57 32,-103 33,-225 0,-135 -14,-205 -54,-265 -57,-87 -163,-108 -271,-56 l -47,23 2,265 3,266 55,38 c 86,59 135,70 197,44 z"
           inkscape:connector-curvature="0"
           style="stroke-width:0.33719197;fill:#000000;fill-opacity:0.86930692" />
        <path
           id="path20698"
           d="m 16300,3105 v -645 h 65 65 v 645 645 h -65 -65 z"
           inkscape:connector-curvature="0"
           style="stroke-width:0.33719197;fill:#000000;fill-opacity:0.86930692" />
        <path
           id="path20700"
           d="m 3020,3625 v -85 h 70 70 v 85 85 h -70 -70 z"
           inkscape:connector-curvature="0"
           style="stroke-width:0.33719197;fill:#000000;fill-opacity:0.86930692" />
        <path
           id="path20702"
           d="m 10140,3625 v -85 h 70 70 v 85 85 h -70 -70 z"
           inkscape:connector-curvature="0"
           style="stroke-width:0.33719197;fill:#000000;fill-opacity:0.86930692" />
        <path
           id="path20704"
           d="m 16650,3625 v -85 h 70 70 v 85 85 h -70 -70 z"
           inkscape:connector-curvature="0"
           style="stroke-width:0.33719197;fill:#000000;fill-opacity:0.86930692" />
        <path
           id="path20706"
           d="m 560,3080 v -620 h 70 70 v 245 245 h 84 85 l 23,-38 c 13,-21 84,-132 158,-245 l 135,-207 h 88 c 68,0 86,3 81,13 -5,6 -84,126 -176,266 l -169,255 33,25 c 90,70 131,141 149,265 23,151 -20,281 -116,354 -62,47 -144,62 -347,62 H 560 Z m 395,448 c 72,-38 95,-86 95,-196 0,-88 -28,-163 -74,-200 -34,-27 -108,-42 -201,-42 h -75 v 231 232 l 113,-5 c 75,-3 122,-10 142,-20 z"
           inkscape:connector-curvature="0"
           style="stroke-width:0.33719197;fill:#000000;fill-opacity:0.86930692" />
        <path
           id="path20708"
           d="m 6810,3630 v -70 h 60 60 v -485 -485 h -60 -60 v -65 -65 h 190 190 v 65 65 h -60 -60 v 485 485 h 63 62 v 70 70 h -192 -193 z"
           inkscape:connector-curvature="0"
           style="stroke-width:0.33719197;fill:#000000;fill-opacity:0.86930692" />
        <path
           id="path20710"
           d="m 14015,3638 c -9,-35 -57,-207 -106,-383 -50,-176 -113,-401 -141,-500 -27,-99 -56,-202 -64,-229 -8,-27 -14,-53 -14,-58 0,-4 31,-8 68,-8 h 69 l 44,168 44,167 202,3 201,2 15,-52 c 8,-29 30,-106 47,-170 l 32,-118 h 74 73 l -9,28 c -5,15 -40,140 -79,277 -89,324 -217,781 -242,868 l -20,67 h -88 -88 z m 185,-405 76,-278 -154,-3 c -85,-1 -156,-1 -158,1 -2,2 31,130 74,284 42,155 78,280 81,277 2,-2 39,-129 81,-281 z"
           inkscape:connector-curvature="0"
           style="stroke-width:0.33719197;fill:#000000;fill-opacity:0.86930692" />
        <path
           id="path20712"
           d="m 4070,3525 v -135 h -40 -40 v -70 -70 h 39 39 l 4,-312 c 4,-266 7,-320 22,-359 20,-54 67,-106 113,-125 39,-17 124,-18 193,-3 l 50,11 v 75 c 0,84 9,78 -84,55 -48,-13 -100,-5 -122,19 -38,42 -43,85 -44,367 v 272 h 125 125 v 70 70 h -125 -125 v 135 135 h -65 -65 z"
           inkscape:connector-curvature="0"
           style="stroke-width:0.33719197;fill:#000000;fill-opacity:0.86930692" />
        <path
           id="path20714"
           d="m 1678,3410 c -75,-13 -144,-56 -193,-122 -120,-160 -138,-474 -39,-671 88,-174 313,-232 514,-134 l 65,32 3,88 c 2,58 -1,87 -8,87 -6,0 -28,-13 -48,-30 -82,-65 -194,-93 -279,-69 -92,25 -161,126 -176,257 l -6,52 h 266 266 l -6,118 c -6,138 -31,225 -81,293 -58,78 -169,118 -278,99 z m 104,-140 c 71,-20 128,-112 128,-207 v -33 h -195 -195 v 25 c 0,43 39,130 72,162 59,57 117,73 190,53 z"
           inkscape:connector-curvature="0"
           style="stroke-width:0.33719197;fill:#000000;fill-opacity:0.86930692" />
        <path
           id="path20716"
           d="m 2433,3410 c -55,-11 -76,-23 -130,-73 -79,-73 -127,-194 -138,-349 -13,-169 25,-339 95,-427 53,-67 96,-86 195,-86 88,0 118,12 182,68 l 36,32 -6,-92 c -8,-125 -39,-185 -112,-213 -51,-20 -145,-14 -229,14 -42,14 -79,26 -81,26 -3,0 -5,-38 -5,-84 v -84 l 70,-17 c 102,-25 248,-18 313,15 58,29 102,76 129,139 42,96 47,171 48,654 v 457 h -59 c -42,0 -60,-4 -64,-15 -5,-12 -15,-10 -59,9 -63,28 -127,37 -185,26 z m 190,-172 47,-20 v -252 l -1,-251 -44,-33 c -121,-92 -245,-72 -298,48 -32,70 -37,275 -8,367 46,155 154,205 304,141 z"
           inkscape:connector-curvature="0"
           style="stroke-width:0.33719197;fill:#000000;fill-opacity:0.86930692" />
        <path
           id="path20718"
           d="m 7710,3410 c -55,-12 -82,-25 -138,-69 l -52,-41 v 45 45 h -65 -65 v -465 -465 h 65 65 v 344 345 l 43,34 c 124,101 234,100 280,0 21,-46 22,-63 25,-385 l 4,-338 h 64 64 v 323 c 0,411 -13,493 -92,574 -44,46 -128,68 -198,53 z"
           inkscape:connector-curvature="0"
           style="stroke-width:0.33719197;fill:#000000;fill-opacity:0.86930692" />
        <path
           id="path20720"
           d="m 11557,3410 c -178,-31 -287,-215 -287,-485 0,-184 30,-290 107,-375 111,-124 287,-149 466,-68 l 67,31 v 88 c 0,49 -2,89 -5,89 -3,0 -31,-17 -63,-39 -212,-143 -413,-56 -439,189 l -6,60 h 262 261 v 94 c 0,51 -4,117 -10,146 -14,73 -56,162 -93,198 -62,60 -165,88 -260,72 z m 133,-152 c 36,-18 50,-34 72,-78 14,-30 29,-76 32,-102 l 6,-48 h -201 -202 l 7,42 c 8,48 48,127 81,158 28,26 88,49 130,50 17,0 51,-10 75,-22 z"
           inkscape:connector-curvature="0"
           style="stroke-width:0.33719197;fill:#000000;fill-opacity:0.86930692" />
        <path
           id="path20722"
           d="m 14993,3410 c -46,-10 -75,-26 -140,-78 l -43,-33 v 45 46 h -65 -65 v -465 -465 h 65 65 v 344 344 l 31,26 c 64,54 121,80 174,80 63,0 98,-22 121,-77 16,-37 18,-84 22,-379 l 4,-338 h 64 64 v 318 c 0,174 -5,348 -10,385 -21,141 -82,225 -179,246 -29,6 -55,11 -59,10 -4,-1 -26,-5 -49,-9 z"
           inkscape:connector-curvature="0"
           style="stroke-width:0.33719197;fill:#000000;fill-opacity:0.86930692" />
        <path
           id="path20724"
           d="m 3529,3397 c -95,-36 -151,-97 -176,-189 -38,-147 20,-282 140,-326 29,-11 89,-30 135,-42 108,-29 142,-59 142,-125 0,-93 -51,-137 -160,-137 -72,0 -152,31 -215,83 l -50,41 -3,-93 c -3,-109 -2,-111 107,-150 77,-27 190,-32 264,-10 64,19 138,86 166,151 26,59 30,159 11,230 -19,71 -79,123 -170,150 -157,45 -203,64 -224,93 -26,35 -27,101 -2,139 25,39 94,62 160,55 54,-5 161,-52 185,-81 8,-9 20,-16 27,-16 19,0 20,163 1,178 -58,48 -261,78 -338,49 z"
           inkscape:connector-curvature="0"
           style="stroke-width:0.33719197;fill:#000000;fill-opacity:0.86930692" />
        <path
           id="path20726"
           d="m 5255,3404 c -11,-3 -44,-12 -72,-20 l -53,-15 v -85 c 0,-78 2,-85 18,-79 96,41 162,57 228,57 84,-1 126,-18 154,-65 23,-36 27,-116 8,-121 -7,-2 -61,-8 -119,-14 -237,-24 -335,-108 -346,-296 -9,-140 32,-246 116,-302 86,-56 226,-38 319,42 l 42,36 v -41 -41 h 65 66 l -3,378 c -3,358 -4,379 -24,422 -25,55 -74,105 -123,127 -36,16 -233,28 -276,17 z m 295,-593 v -129 l -48,-36 c -63,-46 -95,-57 -160,-57 -87,0 -130,41 -138,133 -11,115 69,189 226,207 135,15 120,30 120,-118 z"
           inkscape:connector-curvature="0"
           style="stroke-width:0.33719197;fill:#000000;fill-opacity:0.86930692" />
        <path
           id="path20728"
           d="m 8370,3401 c -149,-46 -227,-209 -181,-379 24,-88 85,-130 250,-176 51,-14 104,-33 118,-41 33,-22 56,-79 48,-119 -16,-75 -64,-107 -161,-108 -73,0 -164,36 -226,91 -20,17 -38,31 -42,31 -3,0 -6,-43 -6,-96 v -95 l 65,-30 c 169,-80 362,-52 446,63 79,110 78,276 -2,363 -44,48 -76,63 -207,99 -99,28 -134,47 -151,84 -18,38 -13,97 11,127 60,76 186,72 316,-11 29,-19 55,-34 57,-34 3,0 5,40 5,89 v 89 l -47,20 c -27,11 -66,25 -88,31 -45,12 -167,13 -205,2 z"
           inkscape:connector-curvature="0"
           style="stroke-width:0.33719197;fill:#000000;fill-opacity:0.86930692" />
        <path
           id="path20730"
           d="m 9102,3395 c -109,-34 -183,-122 -228,-270 -14,-46 -19,-93 -19,-205 0,-125 3,-156 23,-220 56,-178 158,-261 319,-261 81,0 135,14 204,53 l 39,22 v 88 c 0,58 -4,88 -11,88 -6,0 -27,-13 -45,-30 -76,-66 -180,-96 -246,-70 -83,33 -133,118 -148,251 -10,84 0,209 21,269 61,175 214,205 376,74 23,-19 44,-34 47,-34 3,0 6,42 6,93 v 94 l -52,25 c -102,50 -198,61 -286,33 z"
           inkscape:connector-curvature="0"
           style="stroke-width:0.33719197;fill:#000000;fill-opacity:0.86930692" />
        <path
           id="path20732"
           d="m 15645,3403 c -11,-2 -44,-11 -72,-19 l -53,-15 v -85 c 0,-78 2,-85 18,-78 84,37 163,56 230,56 86,-1 125,-19 153,-72 22,-40 25,-109 7,-114 -7,-2 -61,-8 -119,-14 -59,-6 -132,-21 -164,-33 -80,-30 -148,-98 -169,-170 -18,-59 -21,-186 -6,-239 15,-56 65,-127 111,-157 85,-56 224,-37 317,43 l 42,36 v -41 -41 h 65 66 l -3,378 -3,377 -28,56 c -47,98 -135,140 -286,138 -47,-1 -95,-3 -106,-6 z m 295,-588 v -125 l -32,-30 c -61,-55 -115,-74 -206,-71 -47,1 -97,53 -107,109 -26,154 71,227 323,241 22,1 22,-1 22,-124 z"
           inkscape:connector-curvature="0"
           style="stroke-width:0.33719197;fill:#000000;fill-opacity:0.86930692" />
        <path
           id="path20734"
           d="m 17840,3403 c -14,-2 -49,-11 -77,-19 l -53,-15 v -85 c 0,-78 2,-85 18,-79 102,42 163,57 229,57 109,-1 155,-32 174,-119 15,-64 8,-72 -56,-73 -123,-1 -261,-39 -325,-90 -130,-103 -133,-371 -5,-495 40,-39 72,-50 150,-50 69,0 87,4 130,28 28,15 65,41 83,58 l 32,30 v -45 -46 h 66 66 l -4,363 c -5,417 -9,438 -83,512 -55,56 -118,75 -234,74 -47,-1 -97,-4 -111,-6 z m 300,-588 v -124 l -52,-39 c -75,-56 -93,-64 -152,-64 -101,-1 -148,47 -149,151 -1,130 94,189 326,200 l 27,1 z"
           inkscape:connector-curvature="0"
           style="stroke-width:0.33719197;fill:#000000;fill-opacity:0.86930692" />
        <path
           id="path20736"
           d="m 3030,2925 v -465 h 65 65 v 465 465 h -65 -65 z"
           inkscape:connector-curvature="0"
           style="stroke-width:0.33719197;fill:#000000;fill-opacity:0.86930692" />
        <path
           id="path20738"
           d="m 4580,2925 v -465 h 65 65 v 329 329 l 53,41 c 88,68 146,80 255,54 21,-5 22,-3 22,80 v 86 l -36,7 c -86,16 -176,-16 -251,-89 l -43,-41 v 67 67 h -65 -65 z"
           inkscape:connector-curvature="0"
           style="stroke-width:0.33719197;fill:#000000;fill-opacity:0.86930692" />
        <path
           id="path20740"
           d="m 9580,2925 v -465 h 65 65 v 330 330 l 61,45 c 81,60 127,70 227,52 l 42,-7 v 84 85 l -36,7 c -89,17 -179,-16 -256,-91 l -38,-37 v 66 66 h -65 -65 z"
           inkscape:connector-curvature="0"
           style="stroke-width:0.33719197;fill:#000000;fill-opacity:0.86930692" />
        <path
           id="path20742"
           d="m 10140,2925 v -465 h 65 65 v 465 465 h -65 -65 z"
           inkscape:connector-curvature="0"
           style="stroke-width:0.33719197;fill:#000000;fill-opacity:0.86930692" />
        <path
           id="path20744"
           d="m 12480,3378 c 0,-7 63,-206 139,-441 l 139,-428 -64,-192 c -35,-105 -64,-195 -64,-199 0,-4 32,-8 70,-8 45,0 70,4 70,11 0,7 92,292 205,634 113,342 205,625 205,629 0,3 -30,6 -68,6 h -67 l -13,-42 c -7,-24 -51,-160 -97,-303 -46,-143 -87,-272 -91,-287 -3,-16 -9,-28 -13,-28 -4,0 -27,66 -53,148 -25,81 -72,229 -104,330 l -58,182 h -68 c -48,0 -68,-4 -68,-12 z"
           inkscape:connector-curvature="0"
           style="stroke-width:0.33719197;fill:#000000;fill-opacity:0.86930692" />
        <path
           id="path20746"
           d="m 16660,2925 v -465 h 65 65 v 465 465 h -65 -65 z"
           inkscape:connector-curvature="0"
           style="stroke-width:0.33719197;fill:#000000;fill-opacity:0.86930692" />
        <path
           id="path20748"
           d="m 16970,3320 v -70 h 195 c 107,0 195,-2 195,-5 0,-3 -25,-47 -56,-98 -32,-51 -69,-112 -84,-137 -15,-25 -64,-106 -110,-180 -155,-251 -150,-242 -150,-309 v -61 h 290 290 v 70 70 l -208,2 -209,3 126,205 c 292,474 281,453 281,520 v 60 h -280 -280 z"
           inkscape:connector-curvature="0"
           style="stroke-width:0.33719197;fill:#000000;fill-opacity:0.86930692" />
        <path
           id="path20750"
           d="m 5990,2692 c 0,-8 -93,-467 -105,-519 -5,-22 -2,-23 47,-23 h 53 l 88,263 c 48,144 87,268 87,275 0,8 -24,12 -85,12 -47,0 -85,-4 -85,-8 z"
           inkscape:connector-curvature="0"
           style="stroke-width:0.33719197;fill:#000000;fill-opacity:0.86930692" />
      </g>
    </g>
  </g>
</svg>
