<?xml version="1.0" encoding="UTF-8" standalone="no"?>
<!-- Created with Inkscape (http://www.inkscape.org/) -->

<svg
   xmlns:dc="http://purl.org/dc/elements/1.1/"
   xmlns:cc="http://creativecommons.org/ns#"
   xmlns:rdf="http://www.w3.org/1999/02/22-rdf-syntax-ns#"
   xmlns:svg="http://www.w3.org/2000/svg"
   xmlns="http://www.w3.org/2000/svg"
   xmlns:sodipodi="http://sodipodi.sourceforge.net/DTD/sodipodi-0.dtd"
   xmlns:inkscape="http://www.inkscape.org/namespaces/inkscape"
   width="90mm"
   height="28mm"
   viewBox="0 0 90 28"
   version="1.1"
   id="svg18787"
   inkscape:version="0.92.5 (2060ec1f9f, 2020-04-08)"
   sodipodi:docname="edugestion1.svg"
   inkscape:export-filename="C:\Users\mrbm\Pictures\svg propios\edugestion2.png"
   inkscape:export-xdpi="537.55896"
   inkscape:export-ydpi="537.55896">
  <defs
     id="defs18781">
    <clipPath
       clipPathUnits="userSpaceOnUse"
       id="clipPath20235">
      <rect
         style="fill:#616ead;fill-opacity:1;stroke:none;stroke-width:0.37279928;stroke-miterlimit:4;stroke-dasharray:none;stroke-opacity:1"
         id="rect20237"
         width="1.5785606"
         height="0.77257597"
         x="42.525085"
         y="285.81644"
         rx="21.693079"
         ry="0" />
    </clipPath>
    <clipPath
       clipPathUnits="userSpaceOnUse"
       id="clipPath20235-7">
      <rect
         style="fill:#616ead;fill-opacity:1;stroke:none;stroke-width:0.37279928;stroke-miterlimit:4;stroke-dasharray:none;stroke-opacity:1"
         id="rect20237-2"
         width="1.5785606"
         height="0.77257597"
         x="42.525085"
         y="285.81644"
         rx="21.693079"
         ry="0" />
    </clipPath>
    <clipPath
       clipPathUnits="userSpaceOnUse"
       id="clipPath20278">
      <g
         style="fill:#000000;fill-opacity:0.97864081"
         id="use20280"
         inkscape:label="Clip">
        <path
           style="fill:#000000;fill-opacity:0.97864081;stroke-width:0.00480624"
           inkscape:connector-curvature="0"
           d="m 42.034632,286.95534 c -0.242478,0.12147 -0.380358,0.40327 -0.380358,0.77737 0,0.3741 0.08558,0.59274 0.290025,0.74335 0.190177,0.13605 0.613331,0.17977 0.922375,0.0924 0.204442,-0.0582 0.213953,-0.0681 0.213953,-0.25265 v -0.18461 l -0.190183,0.0971 c -0.275759,0.14575 -0.580046,0.13118 -0.755968,-0.0389 -0.07607,-0.0729 -0.15214,-0.18948 -0.166403,-0.26721 l -0.02852,-0.13118 h 0.599071 0.603819 l -0.02852,-0.24778 c -0.03804,-0.31095 -0.185428,-0.55388 -0.375607,-0.6219 -0.218709,-0.0777 -0.513486,-0.0631 -0.70367,0.034 z"
           id="path20364" />
        <ellipse
           style="fill:#ffffff;fill-opacity:0.97864081;stroke:none;stroke-width:0.20628035;stroke-miterlimit:4;stroke-dasharray:none;stroke-opacity:1"
           id="ellipse20366"
           clip-path="url(#clipPath20235)"
           ry="0.4075056"
           rx="0.4222703"
           cy="285.82916"
           cx="43.325005"
           transform="rotate(-179.75843,42.864916,286.6769)" />
        <ellipse
           style="fill:#ffffff;fill-opacity:1;stroke:none;stroke-width:0.20628035;stroke-miterlimit:4;stroke-dasharray:none;stroke-opacity:1"
           id="ellipse20368"
           clip-path="url(#clipPath20235-9)"
           ry="0.4075056"
           rx="0.4222703"
           cy="285.82916"
           cx="43.325005"
           transform="rotate(-179.75843,53.804015,286.62473)" />
      </g>
    </clipPath>
    <clipPath
       clipPathUnits="userSpaceOnUse"
       id="clipPath20235-9">
      <rect
         style="fill:#616ead;fill-opacity:1;stroke:none;stroke-width:0.37279928;stroke-miterlimit:4;stroke-dasharray:none;stroke-opacity:1"
         id="rect20237-4"
         width="1.5785606"
         height="0.77257597"
         x="42.525085"
         y="285.81644"
         rx="21.693079"
         ry="0" />
    </clipPath>
  </defs>
  <sodipodi:namedview
     id="base"
     pagecolor="#ffffff"
     bordercolor="#666666"
     borderopacity="1.0"
     inkscape:pageopacity="0.0"
     inkscape:pageshadow="2"
     inkscape:zoom="1.4"
     inkscape:cx="105.04822"
     inkscape:cy="3.3883417"
     inkscape:document-units="mm"
     inkscape:current-layer="layer1"
     showgrid="false"
     inkscape:window-width="1920"
     inkscape:window-height="1001"
     inkscape:window-x="-9"
     inkscape:window-y="-9"
     inkscape:window-maximized="1"
     inkscape:snap-bbox="false"
     inkscape:object-nodes="false"
     inkscape:snap-grids="true"
     inkscape:snap-page="true"
     inkscape:snap-nodes="false"
     inkscape:snap-global="false" />
  <metadata
     id="metadata18784">
    <rdf:RDF>
      <cc:Work
         rdf:about="">
        <dc:format>image/svg+xml</dc:format>
        <dc:type
           rdf:resource="http://purl.org/dc/dcmitype/StillImage" />
        <dc:title></dc:title>
      </cc:Work>
    </rdf:RDF>
  </metadata>
  <g
     inkscape:label="Capa 1"
     inkscape:groupmode="layer"
     id="layer1"
     transform="translate(0,-269)">
    <path
       inkscape:connector-curvature="0"
       id="path264-1"
       style="fill:#fbb03b;fill-opacity:1;fill-rule:nonzero;stroke:none;stroke-width:0.02758975"
       d="m 81.705883,290.95919 1.785261,2.85901 0.463456,-3.27992 z" />
    <path
       inkscape:connector-curvature="0"
       id="path266-3"
       style="fill:#fc6b76;fill-opacity:1;fill-rule:nonzero;stroke:none;stroke-width:0.02758975"
       d="m 80.088967,275.90882 -1.015782,0.19021 c -0.327736,0.0613 -0.650046,-0.13852 -0.716048,-0.44435 l -0.494032,-2.29424 c -0.06601,-0.30583 0.148581,-0.60607 0.4766,-0.6676 l 1.015782,-0.19021 c 0.327734,-0.0613 0.649757,0.13853 0.715479,0.44436 l 0.494602,2.2945 c 0.06572,0.30557 -0.148867,0.60607 -0.476601,0.66733" />
    <path
       inkscape:connector-curvature="0"
       id="path268-2"
       style="fill:#fcee21;fill-opacity:1;fill-rule:nonzero;stroke:none;stroke-width:0.02758975"
       d="m 83.9546,290.53828 -2.248717,0.42091 -3.064773,-14.23004 2.248151,-0.42091 3.065339,14.23004" />
    <path
       inkscape:connector-curvature="0"
       id="path270-8"
       style="fill:#fbb03b;fill-opacity:1;fill-rule:nonzero;stroke:none;stroke-width:0.02758975"
       d="m 81.256756,277.04323 -2.769899,0.51868 -0.733757,-3.4062 2.77018,-0.51868 0.733476,3.4062" />
    <path
       style="fill:#616ead;fill-opacity:1;stroke-width:0.00480624"
       inkscape:connector-curvature="0"
       d="m 65.545082,278.98087 c -0.418394,0.69477 -0.765476,1.28751 -0.774983,1.30694 -0.0095,0.0244 0.347077,0.0437 0.789247,0.0437 h 0.808269 l 0.489711,-0.53929 c 0.271008,-0.30123 0.52775,-0.58303 0.56579,-0.62676 0.08082,-0.0972 1.036479,-1.15146 1.131572,-1.24377 0.02852,-0.034 0.05705,-0.0972 0.05705,-0.13605 0,-0.0681 -0.137882,-0.0777 -1.150593,-0.0777 h -1.155346 z"
       id="path19466" />
    <path
       style="fill:#616ead;fill-opacity:1;stroke-width:0.00480624"
       inkscape:connector-curvature="0"
       d="m 4.2356953,279.46672 c 0,1.39439 -0.1759141,6.32093 -0.2805168,7.89996 -0.014286,0.27693 -0.02378,0.51014 -0.0095,0.52471 0.0095,0.01 1.1791141,0.0194 2.6007149,0.0194 h 2.576942 l 0.01902,-0.25752 0.01428,-0.25749 -2.3154474,0.0194 -2.3202078,0.0244 0.02378,-0.5053 c 0.033274,-0.64132 0.1188614,-3.1386 0.1188614,-3.42525 v -0.21378 h 2.1395381 2.1395297 v -0.24293 -0.23806 H 6.8459523 c -1.1505931,0.005 -2.1062493,-0.01 -2.1205169,-0.0243 -0.028571,-0.0291 0.080832,-3.82852 0.1093585,-3.86739 0.038065,-0.034 3.9700135,-0.0194 4.3123385,0.0194 l 0.318553,0.0389 v -0.27224 -0.27207 H 6.8507046 4.235722 Z"
       id="path19468" />
    <path
       style="fill:#616ead;fill-opacity:1;stroke-width:0.00480624"
       inkscape:connector-curvature="0"
       d="m 16.288374,279.62219 c 0,0.65105 -0.01428,1.20005 -0.03329,1.2195 -0.01425,0.0194 -0.199689,0.005 -0.404132,-0.0291 -0.542011,-0.0875 -1.611778,-0.0777 -2.130019,0.0244 -1.621289,0.32066 -2.686298,1.42354 -2.99534,3.11431 -0.09509,0.515 -0.07608,1.58874 0.04278,2.00657 0.266252,0.98142 0.993692,1.72964 1.911314,1.97256 0.684648,0.17977 1.350282,0.14575 1.987385,-0.10689 0.594311,-0.23806 1.031728,-0.65104 1.34077,-1.26321 l 0.118865,-0.22836 -0.02853,0.6802 c -0.01428,0.3741 -0.03804,0.72877 -0.0523,0.78707 -0.01902,0.10689 -0.0048,0.11175 0.266252,0.11175 H 16.5974 v -0.37896 c 0,-0.20406 0.0095,-0.7142 0.02378,-1.12718 0.01428,-0.41297 0.04754,-1.63731 0.07133,-2.72077 0.06181,-2.51185 0.133124,-4.55729 0.171161,-4.94597 l 0.02852,-0.30123 h -0.299534 -0.304289 z m -0.423151,1.68104 c 0.199691,0.0535 0.370855,0.10204 0.375607,0.11176 0.02378,0.0389 -0.07608,2.68191 -0.118862,3.14345 -0.06181,0.71906 -0.152146,1.09803 -0.389869,1.58875 -0.446925,0.94255 -1.236174,1.47213 -2.201338,1.47213 -0.328062,0 -0.922374,-0.16033 -1.193383,-0.32066 -0.480205,-0.28666 -0.865318,-0.86481 -1.050746,-1.57416 -0.123617,-0.47614 -0.114109,-1.36039 0.02378,-1.88997 0.399376,-1.52558 1.293225,-2.36124 2.790894,-2.60902 0.489716,-0.0826 1.278965,-0.0485 1.763923,0.0777 z"
       id="path19470" />
    <path
       style="fill:#616ead;fill-opacity:1;stroke-width:0.00480624"
       inkscape:connector-curvature="0"
       d="m 58.389546,279.40842 v 0.92312 h 1.236173 1.236173 v -0.92312 -0.92312 h -1.236173 -1.236173 z"
       id="path19472" />
    <path
       style="fill:#616ead;fill-opacity:1;stroke-width:0.00480624"
       inkscape:connector-curvature="0"
       d="m 29.577226,278.78168 c -2.367746,0.23321 -4.008052,1.79278 -4.350375,4.12487 -0.242482,1.63247 0.118862,3.32808 0.946149,4.40668 1.407332,1.83652 4.245773,2.26893 7.540649,1.14661 l 0.404133,-0.14089 0.01428,-2.46327 0.0095,-2.46328 h -2.210845 -2.210845 v 0.94742 0.94741 h 0.9509 0.9509 v 0.94255 0.94255 l -0.304289,0.034 c -0.351833,0.0389 -1.160098,-0.0389 -1.545212,-0.15061 -0.974677,-0.28665 -1.711624,-1.10775 -1.93984,-2.15718 -0.104599,-0.50044 -0.104599,-1.55959 0.0048,-2.0163 0.437416,-1.8268 2.191829,-2.69161 4.10314,-2.02114 0.437418,0.15548 0.836795,0.38382 1.440617,0.82596 0.294782,0.21377 0.446924,0.29637 0.561034,0.29637 h 0.152143 v -1.18549 -1.18061 l -0.318553,-0.15062 c -1.28847,-0.60245 -2.705315,-0.83566 -4.198228,-0.68505 z"
       id="path19474" />
    <path
       style="fill:#616ead;fill-opacity:1;stroke-width:0.00480624"
       inkscape:connector-curvature="0"
       d="m 52.669873,279.24323 c -0.01901,0.0194 -0.03329,0.50043 -0.03329,1.07374 v 1.03486 h -0.451676 -0.451675 v 0.85024 0.85024 h 0.446921 0.446923 l 0.02377,2.0503 c 0.02377,2.2592 0.03329,2.35152 0.328063,2.91511 0.232968,0.44698 0.580049,0.69477 1.207645,0.87453 0.328061,0.0924 0.489713,0.10203 1.255191,0.10203 0.665628,-0.005 0.979426,-0.0291 1.283716,-0.0972 l 0.404133,-0.0875 0.01427,-0.84052 0.0095,-0.83567 h -0.128372 c -0.07608,0 -0.271007,0.0437 -0.432662,0.0971 -0.332815,0.10691 -0.827285,0.12633 -1.041238,0.0437 -0.19018,-0.0729 -0.347077,-0.23321 -0.446923,-0.45669 -0.08082,-0.17977 -0.09033,-0.34982 -0.09033,-1.98229 v -1.78307 h 1.069765 1.069765 v -0.85024 -0.85023 h -1.069765 -1.069765 l -0.0095,-1.05917 -0.01426,-1.0543 -1.145837,-0.0146 c -0.627595,-0.005 -1.155345,0.005 -1.174366,0.0194 z"
       id="path19476" />
    <path
       style="fill:#616ead;fill-opacity:1;stroke-width:0.00480624"
       inkscape:connector-curvature="0"
       d="m 18.722683,281.70165 c -0.01902,0.46154 -0.06656,1.57415 -0.109354,2.46812 -0.08558,1.81223 -0.06656,2.17662 0.152146,2.67704 0.213953,0.481 0.66563,0.8551 1.250433,1.03487 1.045992,0.31579 2.386765,0.14576 3.109449,-0.39354 0.199691,-0.15062 0.594316,-0.65105 0.665634,-0.84053 0.01428,-0.0389 0.02852,0.22836 0.02852,0.59274 l 0.0048,0.67048 h 0.251988 0.256744 l 0.02852,-1.30208 c 0.02378,-1.12718 0.171161,-4.33866 0.247231,-5.39296 l 0.02378,-0.34982 h -0.285269 -0.285271 v 0.22835 c -0.0048,1.17577 -0.133125,3.74592 -0.218706,4.24149 -0.152145,0.89397 -0.665631,1.65676 -1.340772,1.97742 -1.231419,0.58788 -2.900252,0.2575 -3.294874,-0.64132 -0.161653,-0.37411 -0.194935,-0.79194 -0.13788,-1.93856 0.07132,-1.53043 0.185424,-3.47383 0.21395,-3.68761 l 0.02378,-0.17977 h -0.275758 -0.280516 z"
       id="path19478" />
    <path
       style="fill:#616ead;fill-opacity:1;stroke-width:0.00480624"
       inkscape:connector-curvature="0"
       d="m 38.610793,281.23036 c -1.526197,0.33039 -2.481856,1.25836 -2.885989,2.79365 -0.123616,0.481 -0.114106,1.83167 0.02378,2.33695 0.418398,1.5693 1.592759,2.45841 3.527844,2.67219 1.164856,0.13119 2.633998,-0.0729 3.599165,-0.49556 l 0.204442,-0.0875 v -0.97657 -0.9717 h -0.147387 c -0.08558,0 -0.261504,0.0729 -0.413643,0.17005 -0.380362,0.23807 -0.974677,0.48585 -1.407336,0.58302 -0.551525,0.12632 -1.497671,0.0826 -1.944596,-0.0875 -0.546768,-0.20405 -0.832037,-0.46156 -1.03648,-0.92797 -0.04754,-0.11661 -0.104599,-0.31581 -0.118865,-0.43727 l -0.03329,-0.22349 h 2.629246 2.629241 l -0.02378,-0.81623 c -0.01902,-0.5053 -0.05706,-0.94742 -0.109352,-1.17577 -0.2615,-1.16118 -0.984184,-1.95798 -2.068209,-2.28836 -0.299534,-0.0875 -0.499223,-0.10689 -1.236174,-0.12146 -0.622841,-0.01 -0.969922,0.005 -1.188627,0.0535 z m 1.355035,1.50614 c 0.156899,0.0437 0.361342,0.13605 0.451678,0.21378 0.204444,0.17005 0.408887,0.57817 0.451679,0.91341 l 0.03329,0.25749 h -1.459631 -1.464391 l 0.03329,-0.22348 c 0.03804,-0.30124 0.175919,-0.59275 0.366099,-0.78709 0.190179,-0.1992 0.342325,-0.28179 0.670384,-0.36924 0.332816,-0.0924 0.575297,-0.0924 0.917623,-0.005 z"
       id="path19480" />
    <path
       style="fill:#616ead;fill-opacity:1;stroke-width:0.00480624"
       inkscape:connector-curvature="0"
       d="m 47.145134,281.21094 c -0.48496,0.0631 -1.141083,0.2672 -1.516686,0.47126 -0.446927,0.24293 -0.874834,0.68506 -1.079277,1.10775 -0.156897,0.32552 -0.161649,0.34981 -0.161649,0.94255 0,0.58788 0.0048,0.61704 0.156898,0.93284 0.370851,0.77736 1.045991,1.1709 2.448569,1.4284 1.378809,0.25265 1.649817,0.37411 1.649817,0.74335 0,0.1166 -0.03804,0.21864 -0.09985,0.29152 -0.185424,0.20405 -0.408888,0.26236 -1.055499,0.28665 -0.508735,0.0194 -0.679895,0.005 -1.055502,-0.0875 -0.646612,-0.15061 -1.288471,-0.42755 -1.702115,-0.73363 -0.104598,-0.0777 -0.242478,-0.1409 -0.304288,-0.1409 H 44.3162 v 1.01543 1.01542 l 0.299535,0.12147 c 1.01271,0.41298 2.543659,0.57816 3.718023,0.3984 1.231419,-0.18949 2.130022,-0.75307 2.510379,-1.56929 0.147393,-0.31096 0.152146,-0.34982 0.152146,-0.93285 0,-0.47613 -0.01901,-0.6559 -0.08558,-0.82594 -0.218706,-0.54416 -0.698912,-0.97658 -1.331262,-1.20006 -0.180672,-0.0681 -0.713174,-0.19433 -1.179117,-0.28665 -1.079275,-0.21378 -1.435864,-0.32552 -1.559481,-0.4907 -0.109354,-0.13605 -0.128368,-0.35469 -0.0523,-0.5053 0.194937,-0.36925 1.393072,-0.49557 2.282163,-0.23806 0.380361,0.11173 1.055502,0.41782 1.278965,0.57815 0.07607,0.0584 0.194932,0.10203 0.261497,0.10203 h 0.123618 v -0.96684 -0.9717 l -0.256744,-0.0972 c -0.950902,-0.36439 -2.296427,-0.51987 -3.332911,-0.38868 z"
       id="path19482" />
    <path
       style="fill:#616ead;fill-opacity:1;stroke-width:0.00480624"
       inkscape:connector-curvature="0"
       d="m 65.369167,281.20607 c -1.45488,0.25265 -2.458084,1.18548 -2.847952,2.6479 -0.09034,0.33524 -0.104599,0.515 -0.104599,1.26321 0,0.74335 0.01427,0.93284 0.09985,1.26322 0.294776,1.10289 0.946146,1.92397 1.873275,2.35152 0.889092,0.40812 2.277412,0.49071 3.31865,0.19434 1.469142,-0.41297 2.401023,-1.63733 2.510378,-3.30865 0.133128,-1.98228 -0.50398,-3.35724 -1.873278,-4.05201 -0.608575,-0.30608 -1.117307,-0.40812 -2.039684,-0.40325 -0.389868,0.005 -0.813021,0.0244 -0.936636,0.0437 z m 1.602269,1.78309 c 0.508734,0.27206 0.770231,0.82593 0.855812,1.81708 0.03804,0.45183 -0.04754,1.29237 -0.166412,1.60331 -0.133121,0.36439 -0.399378,0.69963 -0.65612,0.8308 -0.304288,0.15062 -0.855812,0.17976 -1.202891,0.0631 -0.665632,-0.22835 -0.993692,-0.94742 -0.993692,-2.17663 0,-0.67047 0.08082,-1.09315 0.280517,-1.50128 0.185425,-0.3741 0.394625,-0.58301 0.698913,-0.69962 0.275759,-0.10203 0.936639,-0.0681 1.183873,0.0631 z"
       id="path19484" />
    <path
       style="fill:#616ead;fill-opacity:1;stroke-width:0.00480624"
       inkscape:connector-curvature="0"
       d="m 75.914665,281.23523 c -0.427906,0.0971 -0.817772,0.28179 -1.302733,0.61702 -0.213953,0.15548 -0.404136,0.27695 -0.413644,0.27695 -0.01428,0 -0.02378,-0.17491 -0.02378,-0.38869 v -0.38868 H 73.00965 71.844801 v 3.76535 3.76535 h 1.164849 1.164858 v -2.6479 -2.64788 l 0.27576,-0.1409 c 0.446927,-0.22836 0.784494,-0.31094 1.193382,-0.28666 0.413643,0.0244 0.703666,0.15062 0.836797,0.3644 0.204442,0.3158 0.223457,0.55873 0.247234,3.01228 l 0.02378,2.34666 h 1.160099 1.160097 v -2.69161 c 0,-3.00743 -0.01425,-3.16776 -0.304285,-3.79452 -0.19018,-0.39353 -0.551527,-0.7725 -0.927131,-0.97169 -0.48496,-0.24778 -1.28847,-0.32553 -1.925574,-0.18948 z"
       id="path19486" />
    <path
       style="fill:#616ead;fill-opacity:1;stroke-width:0.00480624"
       inkscape:connector-curvature="0"
       d="m 58.437093,285.11718 v 3.76535 h 1.164852 1.164858 v -3.76535 -3.76535 h -1.164858 -1.164852 z"
       id="path19488" />
  </g>
</svg>
